<svg width="1183" height="1061" viewBox="0 0 1183 1061" fill="none" xmlns="http://www.w3.org/2000/svg">
<path d="M6.39382 994.368L65.6743 1002.8L39.086 1044.88L75.5468 1017.5L83.3835 1051.18L91.8327 1019.81L123.573 1034.96L108.017 1008.82L160.219 1006.28L128.389 988.932L136.074 954.608L97.9485 976.819L98.7658 943.04L85.5713 975.058L46.5612 940.931L70.9701 988.932L6.39382 994.368Z" fill="white"/>
<path d="M1154.88 271.728L1107.76 234.785L1151.82 211.64L1106.56 217.121L1116.61 184.034L1093.61 206.972L1073.7 177.983L1074.1 208.397L1027.62 184.499L1046.51 215.438L1022.7 241.32L1066.82 241.149L1049.22 269.994L1076.66 248.862L1093.38 297.922L1096.24 244.148L1154.88 271.728Z" fill="white"/>
<path d="M44.8672 521.791L95.2882 489.496L102.6 538.729L112.36 494.189L140.277 514.596L126.211 485.317L160.148 476.082L131.303 466.428L169.198 430.435L133.759 438.061L117.183 407.039L102.788 448.748L81.3641 422.619L92.2608 455.491L40.4312 455.089L90.2508 475.532L44.8672 521.791Z" fill="white"/>
<path d="M1099.09 1027.21L1055.85 1007.41L1052.69 1048.87L1026.77 1005.33L990.272 1003.28L1014.54 967.158L979.515 911.658L1037.46 941.518L1058.81 890.476L1060.73 939.231L1092.12 918.636L1084.23 952.1L1111.84 954.075L1087.26 986.613L1099.09 1027.21Z" fill="white"/>
<path d="M142.808 731.215C137.117 736.028 123.922 740.894 111.774 735.261C90.6973 725.489 94.5752 701.418 106.876 703.193C113.301 704.12 113.657 715.112 103.593 720.532C93.8283 725.79 75.8136 724.744 65.7803 712.03C51.0988 693.426 68.6723 668.906 85.6608 661.918" stroke="white" stroke-width="7.13979" stroke-linecap="round" stroke-linejoin="round"/>
<path d="M1012.38 475.52C1019.71 474.198 1033.57 476.581 1041.28 487.533C1054.64 506.535 1039.25 525.442 1029.48 517.754C1024.38 513.739 1029.57 504.042 1041 504.38C1052.08 504.708 1067.16 514.622 1069.49 530.649C1072.9 554.101 1045.43 566.55 1027.22 564.107" stroke="white" stroke-width="7.13979" stroke-linecap="round" stroke-linejoin="round"/>
<path d="M221.876 638L227.466 648.345L234.454 641.448L231.659 654.552L241.442 660.069H229.912L223.973 688L221.876 660.069H212.442L221.876 654.552V638Z" fill="white"/>
<path d="M794.945 492.084L795.276 480.33L785.776 482.809L794.748 472.859L789.034 463.189L799.02 468.954L818.129 447.735L805.979 472.972L814.149 477.689L803.221 477.75L794.945 492.084Z" fill="white"/>
<path d="M70.5906 110.769L81.5772 114.959L82.3716 105.173L88.8047 116.926L99.818 114.723L91.0814 122.247L104.808 147.287L84.9922 127.491L77.844 133.647L81.3918 123.31L70.5906 110.769Z" fill="white"/>
<path d="M689.98 923.923L693.964 894L700.122 923.923L718.235 917.867L706.643 932.116L732 939.24H704.832L711.714 959.545L698.311 946.365L689.98 977V946.365L669.332 954.914L680.561 939.24L661 932.116H683.821V915.017L689.98 923.923Z" fill="white"/>
<path d="M1065.93 746.322L1059.26 728.997L1057.8 748.321L1047.4 750.879L1059.4 754.824L1057.88 769.68L1066.37 757.937L1076.87 773.978L1072.07 754.467L1082.15 751.989L1072.91 748.055L1074.01 735.714L1065.93 746.322Z" fill="white"/>
<path d="M128.386 926L120.301 893.719L102.374 902.744L117.137 884.347L100.616 873.24L120.301 875.323V842L131.198 873.24L149.477 861.785L136.119 880.876L158.616 888.513L136.119 890.942L144.556 902.744L131.198 893.719L128.386 926Z" fill="white"/>
<path d="M1015.05 269.939L1005.91 301.938L1025.95 303.086L1003.97 311.636L1012.72 329.516L996.713 317.87L980.052 346.728L986.235 314.225L964.678 315.006L985.791 305.151L970.126 287.289L990.824 296.434L989.419 281.995L996.475 296.489L1015.05 269.939Z" fill="white"/>
<path d="M102.689 269.482L75.4973 250.298L67.8027 268.835L66.9842 245.261L47.2173 247.626L63.492 236.359L41.7468 211.109L70.3899 227.669L76.7652 207.062L79.1021 230.244L101.132 221.35L85.671 237.872L99.7649 241.309L83.7542 243.187L102.689 269.482Z" fill="white"/>
<circle cx="76.4424" cy="771" r="4" fill="white"/>
<circle cx="1043.46" cy="422.464" r="4" transform="rotate(-150 1043.46 422.464)" fill="white"/>
<ellipse cx="4" cy="3.5" rx="4" ry="3.5" transform="matrix(1 0 0 -1 1068 850)" fill="white"/>
<circle cx="4" cy="4" r="4" transform="matrix(1 0 0 -1 109.365 667.016)" fill="white"/>
<circle cx="4" cy="4" r="4" transform="matrix(-0.866025 -0.5 -0.5 0.866025 970.928 461)" fill="white"/>
<circle cx="4" cy="4" r="4" transform="matrix(1 0 0 -1 1022 686)" fill="white"/>
<ellipse cx="70.4424" cy="835.5" rx="2" ry="2.5" fill="white"/>
<ellipse cx="923.982" cy="350.165" rx="2" ry="2.5" transform="rotate(-150 923.982 350.165)" fill="white"/>
<circle cx="2.5" cy="2.5" r="2.5" transform="matrix(1 0 0 -1 1036 824)" fill="white"/>
<ellipse cx="4" cy="3.5" rx="4" ry="3.5" transform="matrix(1 0 0 -1 792 577)" fill="white"/>
<circle cx="2.5" cy="2.5" r="2.5" transform="matrix(1 0 0 -1 816 757)" fill="white"/>
<circle cx="2.5" cy="2.5" r="2.5" transform="matrix(1 0 0 -1 93.6162 925)" fill="white"/>
<circle cx="2.5" cy="2.5" r="2.5" transform="matrix(-0.866025 -0.5 -0.5 0.866025 1044.66 288.19)" fill="white"/>
<circle cx="2.5" cy="2.5" r="2.5" transform="matrix(0.757724 -0.652575 -0.652575 -0.757724 72.7051 331.052)" fill="white"/>
<ellipse cx="2.5" cy="2" rx="2.5" ry="2" transform="matrix(1 0 0 -1 927 972)" fill="white"/>
<path d="M911.691 727.737C919.367 736.934 931.732 742.58 941.97 736.503C951.583 730.796 946.472 715.072 937.157 716.117C932.996 716.584 930.956 721.812 934.026 725.49C939.783 732.388 955.563 728.716 959.914 720.992C969.079 704.718 947.351 692.297 934.694 693.786M934.694 693.786L941.797 701.829M934.694 693.786L943.638 687.17" stroke="white" stroke-width="7.13979" stroke-linecap="round" stroke-linejoin="round"/>
<path d="M967.518 883.571C964.284 887.474 956.794 893.406 950.081 889.639C938.794 883.305 948.662 847.024 960.788 851.666C972.915 856.309 948.453 897.019 926.66 889.631C905.9 882.594 923.882 830.504 937.909 836.955C951.204 843.068 924.679 881.951 907.054 876.175C889.499 870.422 897.693 833.867 923.457 819.078" stroke="white" stroke-width="7.13979" stroke-linecap="round" stroke-linejoin="round"/>
<path d="M555.923 978.02L526 974.036L555.923 967.878L549.867 949.765L564.116 961.357L571.24 936L571.24 963.168L591.545 956.286L578.365 969.689L609 978.02L578.365 978.02L586.914 998.668L571.24 987.439L564.116 1007L564.116 984.179L547.017 984.179L555.923 978.02Z" fill="white"/>
<path d="M812.976 51.6357L836.898 70.0479L807.905 60.4196L804.093 79.1332L797.549 61.9699L778.701 80.3676L792.285 56.8391L771.259 52.6473L789.375 47.63L767.01 25.0971L793.541 40.4147L796.461 18.2583L804.42 35.8203L820.371 22.4421L808.96 42.206L823.768 50.7554L812.976 51.6357Z" fill="white"/>
<path d="M432.537 67.4768L407.264 83.9844L425.918 59.7913L409.51 50.0191L427.871 49.504L416.722 25.641L434.452 46.2272L445.346 27.7617L444.105 46.5186L472.755 32.8399L449.542 52.8316L469.495 62.8981L450.29 64.6175L457.657 84.0887L442.764 66.7963L429.808 77.9545L432.537 67.4768Z" fill="white"/>
<path d="M486.764 807.018L469.44 813.691L488.763 815.147L491.321 825.552L495.266 813.548L510.123 815.068L498.38 806.576L514.42 796.081L494.91 800.877L492.431 790.797L488.497 800.04L476.157 798.936L486.764 807.018Z" fill="white"/>
<path d="M860.313 265.544L878.653 268.427L862.646 257.505L865.634 247.214L856.215 255.638L844.109 246.893L850.032 260.119L830.894 261.188L850.188 266.789L847.294 276.758L855.323 270.721L865.458 277.847L860.313 265.544Z" fill="white"/>
<path d="M198.854 86.3559L190.081 102.718L205.673 91.2114L214.402 97.4263L209.557 85.7559L221.806 77.2127L207.366 78.4412L212.672 60.0212L201.018 76.3877L192.562 70.3669L195.613 79.9381L185.542 87.1546L198.854 86.3559Z" fill="white"/>
<path d="M194.192 995.037L213.824 978.752L219.484 999.185L221.286 979.845L234.154 987.016L226.679 975.371L240.545 969.696L227.846 967.119L241.989 949.925L226.714 960.047L221.576 946.828L214.868 961.133L204.447 951.204L210.769 964.533L188.836 967.067L210.965 973.111L194.192 995.037Z" fill="white"/>
<path d="M1063.91 75.0653L1038.76 79.3527L1044.08 58.8268L1032.85 74.6745L1025.29 62.0306L1025.94 75.8524L1011.09 73.8343L1020.8 82.4151L999.958 90.2346L1018.25 89.1064L1016.09 103.123L1029.05 94.0888L1033.11 107.898L1034.3 93.1937L1054.56 101.965L1038.42 85.6671L1063.91 75.0653Z" fill="white"/>
<path d="M280.251 392.202L284.499 367.051L302.122 378.84L290.867 363.01L305.297 360.046L292.034 356.1L298.837 342.752L287.534 349.086L287.029 326.828L282.06 344.466L269.541 337.803L273.793 353.019L259.417 352.297L272.906 358.271L257.94 374.504L278.652 364.642L280.251 392.202Z" fill="white"/>
<ellipse cx="4" cy="3.5" rx="4" ry="3.5" transform="matrix(1.19249e-08 -1 -1 -1.19249e-08 434.616 954)" fill="white"/>
<ellipse cx="4" cy="3.5" rx="4" ry="3.5" transform="matrix(1.19249e-08 -1 -1 -1.19249e-08 90.4424 83.0002)" fill="white"/>
<ellipse cx="4" cy="3.5" rx="4" ry="3.5" transform="matrix(-0.5 0.866025 0.866025 0.5 652 62)" fill="white"/>
<ellipse cx="4" cy="3.5" rx="4" ry="3.5" transform="matrix(-0.652575 -0.757724 -0.757724 0.652575 658.967 68.062)" fill="white"/>
<circle cx="4" cy="4" r="4" transform="matrix(1.19249e-08 -1 -1 -1.19249e-08 274.442 844)" fill="white"/>
<circle cx="4" cy="4" r="4" transform="matrix(-0.5 0.866025 0.866025 0.5 852 121)" fill="white"/>
<circle cx="4" cy="4" r="4" transform="matrix(-0.652575 -0.757724 -0.757724 0.652575 227.725 232.062)" fill="white"/>
<circle cx="2.5" cy="2.5" r="2.5" transform="matrix(1.19249e-08 -1 -1 -1.19249e-08 414.616 940)" fill="white"/>
<circle cx="2.5" cy="2.5" r="2.5" transform="matrix(1.19249e-08 -1 -1 -1.19249e-08 70.4424 69.0002)" fill="white"/>
<circle cx="2.5" cy="2.5" r="2.5" transform="matrix(-0.5 0.866025 0.866025 0.5 361.942 423)" fill="white"/>
<circle cx="2.5" cy="2.5" r="2.5" transform="matrix(-0.652575 -0.757724 -0.757724 0.652575 310.494 92.7893)" fill="white"/>
<circle cx="2.5" cy="2.5" r="2.5" transform="matrix(1.19249e-08 -1 -1 -1.19249e-08 193.616 947)" fill="white"/>
<circle cx="2.5" cy="2.5" r="2.5" transform="matrix(-0.5 0.866025 0.866025 0.5 1017.5 132)" fill="white"/>
<circle cx="2.5" cy="2.5" r="2.5" transform="matrix(-0.652575 -0.757724 -0.757724 0.652575 125.494 264.789)" fill="white"/>
<path d="M374.179 1035.12C383.377 1027.44 389.022 1015.08 382.945 1004.84C377.239 995.227 361.514 1000.34 362.56 1009.65C363.027 1013.81 368.254 1015.85 371.933 1012.78C378.83 1007.03 375.159 991.246 367.434 986.896C351.16 977.73 338.74 999.458 340.228 1012.12M340.228 1012.12L348.271 1005.01M340.228 1012.12L333.613 1003.17" stroke="white" stroke-width="7.13979" stroke-linecap="round" stroke-linejoin="round"/>
<path d="M894.793 62.2739C886.993 71.367 883.474 84.4964 891.162 93.5865C898.382 102.122 913.043 94.4776 910.469 85.4641C909.319 81.4376 903.826 80.2915 900.707 83.9287C894.858 90.7483 901.092 105.703 909.43 108.714C926.998 115.058 935.648 91.5725 932.084 79.3365M932.084 79.3365L925.329 87.6737M932.084 79.3365L940.09 87.0621" stroke="white" stroke-width="7.13979" stroke-linecap="round" stroke-linejoin="round"/>
<path d="M337.983 145.324C339.943 133.506 336.152 120.453 324.866 116.661C314.269 113.101 305.689 127.234 312.561 133.61C315.63 136.459 320.922 134.593 321.706 129.866C323.175 121.003 310.095 111.442 301.404 113.186C283.091 116.861 287.859 141.431 297.247 150.05M297.247 150.05L298.706 139.419M297.247 150.05L286.397 147.59" stroke="white" stroke-width="7.13979" stroke-linecap="round" stroke-linejoin="round"/>
<path d="M853.571 956.278C857.474 959.512 863.406 967.002 859.639 973.714C853.305 985.002 817.023 975.134 821.666 963.008C826.309 950.881 867.018 975.343 859.631 997.135C852.594 1017.9 800.504 999.914 806.955 985.887C813.068 972.592 851.951 999.117 846.175 1016.74C840.422 1034.3 803.867 1026.1 789.078 1000.34" stroke="white" stroke-width="7.13979" stroke-linecap="round" stroke-linejoin="round"/>
</svg>
